PathFileType	4	(X/Y/Z)	Kaydara																																																																																																																									
DataRate	CameraRate	NumFrames	NumMarkers	Units	OrigDataRate	OrigDataStartFrame	OrigNumFrames																																																																																																																					
30	30	7	41	mm	30	50	198																																																																																																																					
Frame#	Time	NABA_LFHD			NABA_RFHD			NABA_LBHD			NABA_RBHD			NABA_LFTShould			NABA_RFTShould			NABA_LRRShould			NABA_RRRShould			NABA_T10			NABA_STRN			NABA_TRUN			NABA_LSHO			NABA_LUPA			NABA_LELB			NABA_LFRM			NABA_LWRA			NABA_LWRB			NABA_LFIN			NABA_RSHO			NABA_RUPA			NABA_RELB			NABA_RFRM			NABA_RWRA			NABA_RWRB			NABA_RFIN			NABA_LFWT			NABA_RFWT			NABA_LBWT			NABA_RBWT			NABA_LTHI			NABA_LKNE			NABA_LSHN			NABA_LANK			NABA_LHEE			NABA_LTOE			NABA_RTHI			NABA_RKNE			NABA_RSHN			NABA_RANK			NABA_RHEE			NABA_RTOE		
		X1	Y1	Z1	X2	Y2	Z2	X3	Y3	Z3	X4	Y4	Z4	X5	Y5	Z5	X6	Y6	Z6	X7	Y7	Z7	X8	Y8	Z8	X9	Y9	Z9	X10	Y10	Z10	X11	Y11	Z11	X12	Y12	Z12	X13	Y13	Z13	X14	Y14	Z14	X15	Y15	Z15	X16	Y16	Z16	X17	Y17	Z17	X18	Y18	Z18	X19	Y19	Z19	X20	Y20	Z20	X21	Y21	Z21	X22	Y22	Z22	X23	Y23	Z23	X24	Y24	Z24	X25	Y25	Z25	X26	Y26	Z26	X27	Y27	Z27	X28	Y28	Z28	X29	Y29	Z29	X30	Y30	Z30	X31	Y31	Z31	X32	Y32	Z32	X33	Y33	Z33	X34	Y34	Z34	X35	Y35	Z35	X36	Y36	Z36	X37	Y37	Z37	X38	Y38	Z38	X39	Y39	Z39	X40	Y40	Z40	X41	Y41	Z41
																																																																																																																												
50	1.643	261.90382	1607.12891	-1879.85962	91.90836	1582.70218	-1853.80707	272.75055	1591.93146	-2004.9118	57.20673	1576.94534	-1949.37195	253.92439	1338.90839	-1917.70599	117.03866	1335.20569	-1916.34415	251.86403	1380.57358	-2042.54425	102.3923	1377.29202	-2031.02249	185.54644	1209.77325	-2094.35883	187.47629	1287.19803	-1865.23026	189.35249	1193.26256	-1810.47607	351.80725	1352.9422	-1975.47745	397.95414	1114.68758	-2010.85205	406.43505	1031.38329	-1985.49454	397.76051	963.53996	-2013.21594	349.47006	807.71149	-1950.00748	420.68172	810.93987	-1952.86865	402.27772	747.3259	-1914.73999	22.55184	1351.9339	-1962.93945	-28.39364	1151.35162	-2025.78354	-54.9189	1028.27553	-1981.28769	-57.33449	932.33368	-1969.20563	14.07914	812.91916	-1890.87952	-60.04471	800.68436	-1886.09207	-41.33424	765.16579	-1853.16086	310.13777	939.13307	-1906.93588	42.92514	945.24391	-1907.66418	257.3428	1021.13113	-2069.7287	97.95273	1037.30141	-2072.64542	314.44538	649.94812	-2060.5275	300.9886	498.13408	-2011.75888	242.77653	300.91635	-2010.25314	277.78469	155.81513	-2089.25262	223.39876	111.7862	-2152.65579	253.86044	80.48661	-1972.7153	39.81808	671.1869	-2071.84738	53.87881	502.92934	-1971.72821	59.70238	330.5254	-2006.34247	49.70616	144.63985	-2087.88467	100.03251	100.10015	-2159.37225	60.8699	77.56797	-1970.17944
51	1.677	264.94686	1606.41464	-1872.17758	94.71881	1582.34589	-1846.8544	276.6621	1588.78799	-1996.98532	60.38583	1574.6991	-1942.77679	258.00503	1336.45157	-1907.45529	121.38779	1332.79404	-1907.35458	256.91437	1379.15283	-2031.63452	107.61922	1376.02386	-2021.745	191.14687	1209.27063	-2086.38153	191.17619	1284.05014	-1856.14075	192.79158	1189.51889	-1802.55341	356.32156	1351.02386	-1964.24683	402.88929	1113.61557	-2003.53867	410.96756	1029.8542	-1979.66263	402.38586	962.51503	-2008.58322	353.13675	805.67116	-1948.94562	424.48116	808.81966	-1950.9169	405.18188	744.21974	-1914.58008	27.34447	1350.1741	-1954.82193	-23.6777	1151.1071	-2020.62714	-52.48907	1027.94006	-1978.17932	-56.11098	931.81953	-1966.71921	12.54492	811.10725	-1887.84409	-61.56114	799.84756	-1884.04938	-43.91175	764.22058	-1850.89478	314.44218	937.2213	-1901.57822	47.57849	943.14919	-1903.16238	261.42006	1019.91898	-2063.89801	102.01797	1035.74661	-2067.0787	317.96495	648.87016	-2056.04813	304.03917	496.60576	-2008.31863	244.42997	299.5643	-2008.79379	278.94865	154.81891	-2088.6676	224.89075	111.47407	-2152.97607	253.2457	80.10894	-1972.95364	44.08082	666.73126	-2060.04852	56.6165	500.02754	-1954.48944	61.61196	326.88736	-1993.91815	49.76793	145.3906	-2084.35318	99.82756	102.34379	-2157.56409	60.52569	77.12883	-1969.68018
52	1.71	268.17968	1604.23264	-1863.43781	98.15046	1580.41183	-1838.51425	280.87021	1583.56049	-1987.69592	64.25801	1570.38681	-1934.68277	262.28283	1332.0816	-1895.44891	125.73772	1328.35892	-1897.59674	262.86942	1376.40137	-2018.9566	113.55926	1373.71964	-2011.47644	197.38091	1207.88254	-2077.85843	194.89681	1278.91113	-1846.14639	195.86142	1183.29506	-1794.48212	361.14304	1347.56805	-1950.90363	408.77789	1111.39664	-1994.28238	416.54015	1027.02454	-1971.87592	408.2935	960.01305	-2001.82632	357.37923	802.57095	-1945.26855	428.93635	805.439	-1946.03928	408.18314	740.30075	-1910.92316	32.86628	1346.70578	-1945.6015	-17.86005	1149.13597	-2015.67474	-49.72069	1026.36719	-1976.13068	-54.68262	929.95071	-1965.27054	9.72772	808.34648	-1884.75067	-63.65417	797.71957	-1883.45917	-47.6406	761.97235	-1849.77524	318.62005	934.52965	-1896.03607	51.98545	939.03244	-1899.84985	265.29526	1017.80365	-2058.41888	105.52589	1031.34949	-2063.30246	323.01445	647.72133	-2051.94366	308.80554	494.80274	-2005.25986	246.91744	297.95956	-2007.39868	280.24002	153.35897	-2087.96631	226.24983	111.15847	-2153.25348	252.7169	79.53055	-1973.31238	49.36934	657.72522	-2042.31079	60.48652	495.78129	-1924.43329	65.40972	321.99562	-1973.62701	50.90605	148.88245	-2076.83884	100.54514	110.15398	-2152.61673	59.96583	76.66467	-1968.02917
53	1.743	271.46601	1601.90186	-1853.37692	101.22148	1578.71078	-1828.9856	285.04488	1577.95502	-1977.06284	68.21492	1565.82611	-1924.85626	266.39355	1326.33957	-1882.01401	129.51989	1323.06824	-1887.1402	268.66955	1373.00629	-2004.89594	118.85287	1371.14044	-2000.53543	203.44288	1206.37161	-2068.4848	197.90596	1271.67564	-1835.61951	197.68116	1174.94942	-1786.25137	365.71049	1342.66403	-1935.70572	414.98333	1107.13371	-1982.60269	422.53304	1022.31949	-1961.60446	414.99115	955.44304	-1992.547	362.56054	797.3806	-1939.27719	433.9135	800.20531	-1938.00247	411.83891	735.10345	-1903.56094	37.13988	1342.35199	-1936.59515	-12.78528	1145.94688	-2011.25595	-46.93581	1023.23944	-1974.81613	-53.12466	926.59622	-1964.92874	8.00356	803.68637	-1883.06534	-65.96017	794.02039	-1884.09332	-51.84387	758.28186	-1850.16998	321.88606	932.13326	-1889.38065	54.81522	932.67685	-1897.30606	268.51871	1015.98991	-2052.88773	107.84612	1025.69977	-2060.35461	328.48328	647.06299	-2048.22952	313.80728	493.67836	-2003.61038	250.34729	297.01475	-2006.87134	281.46961	152.52764	-2088.37234	226.72396	111.03358	-2153.45963	253.59673	79.23272	-1973.88229	55.44098	647.82417	-2017.27142	68.36375	495.67364	-1881.72455	71.47587	324.34704	-1941.25244	53.49398	162.60897	-2063.12744	103.93388	131.53569	-2141.62781	59.84055	77.11342	-1963.6882
54	1.777	274.86734	1600.06714	-1841.76529	104.42497	1577.96585	-1817.87292	289.05121	1573.46786	-1964.90494	71.93895	1562.90512	-1913.44818	268.87733	1320.30121	-1866.92276	132.10951	1318.46268	-1875.36407	274.02105	1370.97839	-1988.94211	123.55785	1369.68109	-1988.05756	209.36298	1206.26183	-2057.97333	199.51033	1264.36867	-1824.021	197.62356	1166.94016	-1776.74667	369.14459	1337.54822	-1918.67599	420.66204	1102.29179	-1968.21945	427.80605	1017.02133	-1947.93732	421.5683	950.52986	-1979.86679	367.59575	791.67702	-1930.58838	439.08581	794.63005	-1926.81061	416.59294	729.88564	-1893.228	40.45086	1338.65326	-1926.38901	-7.78405	1143.0249	-2007.16782	-43.88727	1020.18959	-1973.75885	-51.17318	923.62617	-1965.26123	6.3797	798.87794	-1882.91	-67.71677	790.27519	-1886.75308	-55.81311	754.87724	-1852.28531	323.71841	930.88821	-1880.10208	56.73709	929.16245	-1893.60138	272.38455	1015.61951	-2044.49402	111.80814	1023.07625	-2054.95132	332.66346	647.48901	-2044.38385	317.84504	493.22231	-2002.55386	253.55053	296.90649	-2006.5126	282.93436	152.32635	-2089.41498	227.52932	111.43124	-2154.07166	255.25558	79.14024	-1975.04623	60.90845	643.07396	-1986.6803	75.64783	505.08953	-1835.58105	79.82267	332.87777	-1902.24258	61.20585	183.20024	-2039.22607	112.14527	161.3319	-2119.98062	64.85193	81.61671	-1951.34338
55	1.81	278.33923	1598.91785	-1828.69736	107.73932	1578.37082	-1804.81277	292.56048	1570.33813	-1951.33316	75.15782	1562.05597	-1900.16708	268.53245	1316.5329	-1850.26566	133.23598	1316.03363	-1862.53387	278.17987	1370.21057	-1972.78595	127.17245	1369.35715	-1975.2597	214.62009	1206.73218	-2045.5867	199.61224	1260.41519	-1811.48453	196.17161	1162.71278	-1765.16449	371.26823	1334.83032	-1901.05331	424.52358	1099.09653	-1950.89432	431.12862	1013.94348	-1930.914	426.24443	948.08243	-1963.7883	372.60036	788.09715	-1917.99957	444.55425	791.71448	-1912.9068	421.77372	726.84807	-1879.78165	42.70665	1337.29797	-1916.05576	-1.89717	1142.75291	-2002.25967	-40.12826	1019.42314	-1972.01813	-48.13795	923.05313	-1965.746	5.58296	795.92285	-1884.05869	-68.6699	788.06923	-1890.83694	-59.05353	752.94479	-1856.30554	325.96546	929.27551	-1868.72009	59.3323	929.06319	-1885.02075	277.23551	1015.20706	-2032.61597	116.38979	1022.9084	-2045.56808	335.19314	648.1218	-2039.52271	320.47398	492.94708	-2001.30615	256.42508	296.84235	-2005.95718	284.52209	152.66893	-2090.10406	228.5239	111.86544	-2154.33762	256.3039	78.78597	-1974.758	66.27333	644.00436	-1959.91394	78.42236	517.45262	-1796.58783	87.47284	344.62654	-1862.17346	72.19581	199.18669	-2004.24713	123.36642	180.51352	-2084.68094	78.96369	96.84342	-1920.6395
56	1.843	281.48457	1598.46619	-1814.01581	110.46351	1579.46182	-1790.19089	295.63709	1568.99231	-1936.50635	78.23312	1562.49252	-1885.37247	270.18383	1316.86966	-1835.6192	133.55248	1315.99228	-1849.50653	281.55449	1370.59601	-1956.65771	130.83207	1369.50882	-1961.12015	219.67794	1207.3909	-2031.14563	199.1757	1260.51254	-1797.12967	194.87898	1162.537	-1751.48529	373.32165	1335.07034	-1883.20541	425.99308	1098.67134	-1931.60767	432.48516	1014.43726	-1912.05948	428.2383	949.10721	-1945.51682	378.21335	788.48206	-1900.71396	449.52213	792.51129	-1896.73264	427.84691	727.37442	-1863.13187	44.77487	1337.75558	-1904.65912	3.88243	1144.93187	-1994.94171	-35.93923	1020.79636	-1968.40118	-44.45158	924.80217	-1965.20386	5.23322	794.67308	-1885.22324	-69.68262	787.79236	-1895.96344	-61.07688	751.97212	-1861.3147	329.18961	927.39059	-1855.89615	62.79633	930.71831	-1872.42523	280.64724	1014.72198	-2019.09683	120.23659	1024.20135	-2032.7298	335.17818	648.34099	-2033.0011	321.17588	492.42245	-1997.9509	257.8513	296.79644	-2005.01801	285.28467	153.21882	-2090.19424	228.90425	112.64282	-2153.98254	257.47595	78.52577	-1975.15793	67.291	647.59308	-1936.93283	80.4717	530.7933	-1762.93915	94.67758	353.8158	-1819.58603	84.56377	202.43862	-1956.38916	139.8214	181.58695	-2034.88098	88.13614	104.48403	-1868.55927
